Coordinates
nRows=111
nColumns=2
inDegrees=yes
endheader
time	ankle_angle_r	
2.43347	 -5.281318	
2.50504	 -5.263689	
2.57661	 -5.299839	
2.64819	 -5.277031	
2.71976	 -5.181175	
2.79133	 -5.135726	
2.8629	 -5.161746	
2.93448	 -5.176402	
3.00605	 -5.183219	
3.07762	 -5.250384	
3.14919	 -5.302655	
3.22077	 -5.279791	
3.29234	 -5.259005	
3.36391	 -5.283747	
3.43548	 -5.309892	
3.50706	 -5.274697	
3.57863	 -5.249376	
3.6502	 -5.290276	
3.72177	 -5.307644	
3.79335	 -5.274884	
3.86492	 -5.270686	
3.93649	 -5.311694	
4.00806	 -5.289059	
4.07964	 -5.215100	
4.15121	 -5.195225	
4.22278	 -5.199366	
4.29435	 -5.182608	
4.36593	 -5.146976	
4.4375	 -5.151888	
4.50907	 -5.222623	
4.58065	 -5.249144	
4.65222	 -5.230844	
4.72379	 -5.273343	
4.79536	 -5.314974	
4.86694	 -5.270886	
4.93851	 -5.177042	
5.01008	 -5.111625	
5.08165	 -5.132776	
5.15323	 -5.148960	
5.2248	 -5.172695	
5.29637	 -5.265200	
5.36794	 -5.249379	
5.43952	 -5.191412	
5.51109	 -5.238374	
5.58266	 -5.257776	
5.65423	 -5.235812	
5.72581	 -5.254099	
5.79738	 -5.307440	
5.86895	 -5.311582	
5.94052	 -5.252517	
6.0121	 -5.250881	
6.08367	 -5.297755	
6.15524	 -5.274721	
6.22681	 -5.190104	
6.29839	 -5.165980	
6.36996	 -5.210537	
6.44153	 -5.216001	
6.5131	 -5.177477	
6.58468	 -5.174293	
6.65625	 -5.187565	
6.72782	 -5.137463	
6.7994	 -5.089547	
6.87097	 -5.121086	
6.94254	 -5.142989	
7.01411	 -5.113388	
7.08569	 -5.109291	
7.15726	 -5.145952	
7.22883	 -5.180211	
7.3004	 -5.216250	
7.37198	 -5.236369	
7.44355	 -5.212071	
7.51512	 -5.186833	
7.58669	 -5.169063	
7.65827	 -5.169919	
7.72984	 -5.208655	
7.80141	 -5.220999	
7.87298	 -5.217526	
7.94456	 -5.221668	
8.01613	 -5.167248	
8.0877	 -5.144234	
8.15927	 -5.236871	
8.23085	 -5.294739	
8.30242	 -5.270383	
8.37399	 -5.253073	
8.44556	 -5.272950	
8.51714	 -5.301093	
8.58871	 -5.277202	
8.66028	 -5.255301	
8.73185	 -5.289210	
8.80343	 -5.305727	
8.875	 -5.284161	
8.94657	 -5.283442	
9.01815	 -5.311347	
9.08972	 -5.306370	
9.16129	 -5.272677	
9.23286	 -5.269584	
9.30444	 -5.301091	
9.37601	 -5.286425	
9.44758	 -5.226907	
9.51915	 -5.274124	
9.59073	 -5.362761	
9.6623	 -5.337257	
9.73387	 -5.285290	
9.80544	 -5.292758	
9.87702	 -5.307351	
9.94859	 -5.243137	
10.0202	 -5.144176	
10.0917	 -5.123638	
10.1633	 -5.109059	
10.2349	 -5.060832	
10.3065	 -5.085224	
